#!OML:ASF F:\VICON\USERDATA\INSTALL\rory3\rory3.ASF
:FULLY-SPECIFIED
:DEGREES
234
root -1.99691 18.9035 6.73294 5.74382 162.912 -0.751738
lowerback 15.0408 2.26826 -0.482036
upperback 2.71656 3.15077 -1.44607
thorax -5.47915 1.67599 -1.8781
lowerneck -11.7792 0.882708 -8.28431
upperneck 26.0479 4.14059 2.13737
head 10.0513 1.8912 2.74922
rclavicle -4.4329e-014 1.28216e-014
rhumerus -19.6999 8.02623 -86.9901
rradius 39.3848
rwrist 13.3825
rhand -34.6055 -1.94316
rfingers 7.12502
rthumb -7.764 -31.7806
lclavicle -4.4329e-014 1.28216e-014
lhumerus -32.3538 19.4115 74.6009
lradius 31.7887
lwrist -4.01356
lhand -21.8077 20.3677
lfingers 7.12502
lthumb 4.59446 50.2979
rfemur -7.27272 10.5207 21.8395
rtibia 29.8698
rfoot -18.7015 -21.5286
rtoes -12.6739
lfemur -58.8468 16.2019 -25.5685
ltibia 83.1819
lfoot -21.7249 -8.21899
ltoes 1.09666
235
root -2.00341 18.9324 6.64836 5.83489 163.028 -0.775287
lowerback 14.9857 2.31084 -0.673459
upperback 2.68302 3.1725 -1.5014
thorax -5.49086 1.68879 -1.83123
lowerneck -12.0979 0.845735 -8.29069
upperneck 26.2152 4.10479 2.21278
head 10.1732 1.87445 2.78537
rclavicle -4.57205e-015 9.34288e-015
rhumerus -19.918 8.24803 -87.0859
rradius 40.0776
rwrist 13.2444
rhand -34.8977 -2.28008
rfingers 7.12502
rthumb -8.04606 -32.1069
lclavicle -4.57205e-015 9.34288e-015
lhumerus -32.219 19.3324 74.6023
lradius 31.7306
lwrist -4.14648
lhand -21.7312 20.2288
lfingers 7.12502
lthumb 4.66828 50.1573
rfemur -7.31576 10.4801 21.75
rtibia 30.1274
rfoot -18.2341 -21.6625
rtoes -12.8054
lfemur -58.4704 16.066 -25.5602
ltibia 82.9166
lfoot -22.0017 -8.38722
ltoes 0.352599
236
root -2.00918 18.9659 6.56358 5.88163 163.121 -0.911446
lowerback 14.8961 2.3708 -0.998949
upperback 2.71386 3.20391 -1.58358
thorax -5.42075 1.71227 -1.73508
lowerneck -12.496 0.822399 -8.27465
upperneck 26.3301 4.08221 2.25905
head 10.2921 1.85904 2.80841
rclavicle 1.59028e-014 4.57205e-015
rhumerus -20.2361 8.47307 -87.1365
rradius 40.9635
rwrist 13.0658
rhand -35.2547 -2.82418
rfingers 7.12502
rthumb -8.39059 -32.6375
lclavicle 1.59028e-014 4.57205e-015
lhumerus -31.9827 19.2901 74.65
lradius 31.7078
lwrist -4.26931
lhand -21.6861 20.2615
lfingers 7.12502
lthumb 4.71186 50.1891
rfemur -7.30247 10.4668 21.5318
rtibia 30.3278
rfoot -17.7004 -21.7173
rtoes -13.4254
lfemur -57.9925 15.9524 -25.6616
ltibia 82.5928
lfoot -22.1654 -8.76411
ltoes 1.20348
237
root -2.01511 19.0016 6.47401 5.92367 163.207 -1.1026
lowerback 14.7869 2.43935 -1.31129
upperback 2.7063 3.24389 -1.73576
thorax -5.37595 1.73833 -1.72206
lowerneck -12.6837 0.791444 -8.24249
upperneck 26.2809 3.98627 2.38454
head 10.3114 1.82469 2.83769
rclavicle -1.52567e-014 2.20651e-014
rhumerus -20.5985 8.54355 -87.2395
rradius 41.7006
rwrist 13.0581
rhand -35.2669 -2.76958
rfingers 7.12502
rthumb -8.40231 -32.5825
lclavicle -1.52567e-014 2.20651e-014
lhumerus -31.8263 19.1225 74.6139
lradius 31.7557
lwrist -4.36051
lhand -21.6702 20.5285
lfingers 7.12502
lthumb 4.7272 50.4557
rfemur -7.25638 10.3023 21.2316
rtibia 30.4516
rfoot -16.7192 -21.7699
rtoes -14.6748
lfemur -57.4096 15.8426 -25.8412
ltibia 82.2367
lfoot -22.4246 -9.14594
ltoes 2.10476
238
root -2.02249 19.0384 6.37669 6.00088 163.419 -1.19612
lowerback 14.5814 2.43506 -1.49062
upperback 2.69059 3.20981 -1.84714
thorax -5.28376 1.72468 -1.72142
lowerneck -12.835 0.810943 -8.18373
upperneck 26.2378 3.97271 2.45821
head 10.3232 1.82697 2.85336
rclavicle 5.96354e-016 -9.93923e-016
rhumerus -20.985 8.61111 -87.3312
rradius 42.3437
rwrist 13.28
rhand -34.8141 -2.73755
rfingers 7.12502
rthumb -7.96533 -32.5675
lclavicle 5.96354e-016 -9.93923e-016
lhumerus -31.6665 19.0579 74.5269
lradius 31.6612
lwrist -4.4339
lhand -21.5676 20.8059
lfingers 7.12502
lthumb 4.82627 50.7309
rfemur -7.2056 10.0236 21.0239
rtibia 30.6061
rfoot -15.8115 -21.6995
rtoes -14.2674
lfemur -56.7829 15.6032 -25.9104
ltibia 81.8491
lfoot -22.835 -9.37373
ltoes 1.86628
239
root -2.03126 19.0664 6.28934 6.45694 163.722 -0.419744
lowerback 14.3665 2.34913 -0.834236
upperback 2.59015 3.18484 -1.73705
thorax -5.24534 1.69413 -1.96087
lowerneck -12.9479 0.845586 -8.13865
upperneck 26.1778 3.98083 2.53012
head 10.32 1.83874 2.87184
rclavicle -5.71506e-014 1.66979e-014
rhumerus -21.3809 8.73688 -87.4666
rradius 42.968
rwrist 13.3084
rhand -34.6547 -2.84296
rfingers 7.12502
rthumb -7.81147 -32.6787
lclavicle -5.71506e-014 1.66979e-014
lhumerus -31.6401 19.0715 74.3994
lradius 31.6584
lwrist -4.38131
lhand -21.4418 21.0289
lfingers 7.12502
lthumb 4.94777 50.9511
rfemur -7.3691 9.91285 21.7485
rtibia 30.7919
rfoot -15.0833 -21.7236
rtoes -13.2819
lfemur -56.5746 15.4677 -25.1021
ltibia 81.587
lfoot -23.0004 -9.6164
ltoes 1.80726
240
root -2.04194 19.105 6.20406 6.37913 163.778 -0.624767
lowerback 14.4368 2.38519 -1.18236
upperback 2.5741 3.1772 -1.87
thorax -5.31133 1.69764 -1.90858
lowerneck -13.1018 0.849642 -8.04963
upperneck 26.1416 3.96322 2.5173
head 10.3388 1.83205 2.85162
rclavicle 3.06128e-014 -2.38542e-015
rhumerus -21.6676 8.80188 -87.6004
rradius 43.403
rwrist 13.2771
rhand -34.9153 -2.73379
rfingers 7.12502
rthumb -8.06303 -32.56
lclavicle 3.06128e-014 -2.38542e-015
lhumerus -31.5896 19.1048 74.3089
lradius 31.7402
lwrist -4.3127
lhand -21.3885 21.2712
lfingers 7.12502
lthumb 4.99923 51.1922
rfemur -7.35039 9.87355 21.4131
rtibia 31.106
rfoot -14.6258 -21.5913
rtoes -13.3988
lfemur -55.8367 15.4034 -25.3324
ltibia 81.1352
lfoot -23.3563 -9.67099
ltoes 1.45593
241
root -2.05375 19.1423 6.11669 6.5073 163.814 -0.730072
lowerback 14.3039 2.45746 -1.42846
upperback 2.5155 3.22961 -1.97674
thorax -5.30631 1.72596 -1.88737
lowerneck -13.3578 0.838681 -8.00611
upperneck 26.237 3.94857 2.55186
head 10.4238 1.82728 2.86356
rclavicle 1.0138e-014 -3.57812e-015
rhumerus -21.9569 8.71335 -87.6493
rradius 43.6863
rwrist 13.5479
rhand -35.2854 -2.24892
rfingers 7.12502
rthumb -8.42017 -32.0611
lclavicle 1.0138e-014 -3.57812e-015
lhumerus -31.4254 19.0643 74.2825
lradius 31.711
lwrist -4.3104
lhand -21.1618 21.9069
lfingers 7.12502
lthumb 5.21812 51.8227
rfemur -7.57832 9.88602 21.122
rtibia 31.4817
rfoot -14.0415 -21.2705
rtoes -13.6523
lfemur -55.3605 15.3845 -25.5456
ltibia 80.7087
lfoot -23.6836 -9.75287
ltoes 1.19516
242
root -2.06186 19.178 6.05496 6.59122 164.014 -0.753311
lowerback 14.5254 2.45369 -1.72045
upperback 2.42831 3.16892 -2.02085
thorax -5.53369 1.69976 -1.77449
lowerneck -13.5286 0.866729 -8.06241
upperneck 26.1501 3.96061 2.65209
head 10.4194 1.83218 2.90969
rclavicle 7.95139e-016 1.27222e-014
rhumerus -22.2184 8.79999 -87.7244
rradius 44.0144
rwrist 13.6335
rhand -35.6707 -1.98818
rfingers 7.12502
rthumb -8.79199 -31.785
lclavicle 7.95139e-016 1.27222e-014
lhumerus -31.2105 19.0932 74.2525
lradius 31.5891
lwrist -4.11339
lhand -21.3858 22.7042
lfingers 7.12502
lthumb 5.00185 52.6252
rfemur -7.83777 9.99177 21.0168
rtibia 31.8511
rfoot -13.0938 -21.269
rtoes -13.5483
lfemur -54.98 15.2689 -25.6451
ltibia 80.2563
lfoot -23.8531 -9.73469
ltoes 0.985389
243
root -2.06946 19.2195 5.99617 6.65123 164.298 -0.705731
lowerback 14.7905 2.40049 -1.9167
upperback 2.36392 3.05796 -2.0485
thorax -5.7571 1.64876 -1.68937
lowerneck -13.657 0.896421 -8.12291
upperneck 26.0377 3.96801 2.76213
head 10.3973 1.83649 2.95754
rclavicle -6.15239e-014 2.38542e-014
rhumerus -22.4919 8.96961 -87.8337
rradius 44.4367
rwrist 13.6223
rhand -35.9669 -1.86291
rfingers 7.12502
rthumb -9.07785 -31.6476
lclavicle -6.15239e-014 2.38542e-014
lhumerus -31.0011 19.1608 74.2382
lradius 31.5427
lwrist -3.61809
lhand -22.0206 23.4187
lfingers 7.12502
lthumb 4.38887 53.3532
rfemur -8.00768 10.0313 21.0024
rtibia 32.1264
rfoot -12.0787 -21.3561
rtoes -13.9994
lfemur -54.5492 15.0772 -25.6612
ltibia 79.779
lfoot -23.9543 -9.60231
ltoes 1.31997
244
root -2.08109 19.2677 5.90002 6.97629 164.529 -0.122713
lowerback 14.5037 2.34408 -1.44521
upperback 2.2962 3.05174 -1.96279
thorax -5.65323 1.63056 -1.84902
lowerneck -13.6734 0.904309 -8.12759
upperneck 26.011 3.95738 2.8298
head 10.3887 1.83849 2.98037
rclavicle -4.56211e-014 2.82274e-014
rhumerus -22.8807 9.00081 -87.8635
rradius 44.7832
rwrist 13.8064
rhand -36.1407 -0.655777
rfingers 7.12502
rthumb -9.24552 -30.4331
lclavicle -4.56211e-014 2.82274e-014
lhumerus -30.9215 19.1172 74.2548
lradius 31.5382
lwrist -2.98762
lhand -22.7214 24.079
lfingers 7.12502
lthumb 3.71213 54.0265
rfemur -8.12145 9.92323 21.4253
rtibia 32.2746
rfoot -10.8321 -21.185
rtoes -14.8778
lfemur -54.1373 15.0688 -25.1902
ltibia 79.328
lfoot -24.1249 -9.64094
ltoes 1.9113
